<?xml version="1.0" encoding="UTF-8"?> <svg xmlns="http://www.w3.org/2000/svg" width="77.48" height="87.5" viewBox="0 0 77.48 87.5"><g id="location" transform="translate(-11.15 -4.3)"><path id="Tracé_46" data-name="Tracé 46" d="M61.766,61.856c.169-.275.338-.545.507-.825,7.6-12.586,11.428-23.6,11.373-32.72a23.755,23.755,0,1,0-47.511,0c-.055,9.128,3.771,20.14,11.373,32.724.169.28.338.55.507.825-16,1.978-26.615,7.7-26.615,14.489,0,8.526,16.9,15.205,38.49,15.205s38.49-6.679,38.49-15.205c0-6.791-10.61-12.512-26.615-14.489ZM28.7,28.31a21.194,21.194,0,0,1,42.389,0c.109,18.194-16.9,40.629-21.195,46.009-4.3-5.38-21.305-27.815-21.194-46.013ZM49.89,88.989c-21.492,0-35.929-6.538-35.929-12.644,0-5.415,10.7-10.453,25.563-12.087a135.594,135.594,0,0,0,9.391,12.918,1.279,1.279,0,0,0,1.951,0,135.593,135.593,0,0,0,9.391-12.918C75.112,65.892,85.82,70.927,85.82,76.345c0,6.106-14.438,12.644-35.93,12.644Z" fill="#fff" stroke="#fff" stroke-width="0.5"></path><path id="Tracé_47" data-name="Tracé 47" d="M44.269,108.416c-5.683-.727-10.245-2.008-12.841-3.6a1.28,1.28,0,1,0-1.341,2.182c2.9,1.782,7.822,3.19,13.857,3.962a1.243,1.243,0,0,0,.164.01,1.281,1.281,0,0,0,.161-2.55Z" transform="translate(-4.849 -26.844)" fill="#fff" stroke="#fff" stroke-width="0.5"></path><path id="Tracé_48" data-name="Tracé 48" d="M64.451,110.63c-1.785.041-3.643.031-5.457-.035a1.281,1.281,0,1,0-.094,2.561c1.125.041,2.268.062,3.4.062q1.117,0,2.211-.026a1.281,1.281,0,0,0,1.251-1.31,1.266,1.266,0,0,0-1.311-1.252Z" transform="translate(-12.411 -28.446)" fill="#fff" stroke="#fff" stroke-width="0.5"></path><path id="Tracé_49" data-name="Tracé 49" d="M70.849,33.056A10.814,10.814,0,1,0,60.035,43.872,10.814,10.814,0,0,0,70.849,33.056Zm-19.066,0a8.253,8.253,0,1,1,8.253,8.254,8.252,8.252,0,0,1-8.253-8.254Z" transform="translate(-10.145 -4.746)" fill="#fff" stroke="#fff" stroke-width="0.5"></path></g></svg> 